<svg xmlns="http://www.w3.org/2000/svg" width="672" height="597.528" viewBox="0 0 672 597.528">
  <g id="undraw_Note_list_re_r4u9" transform="translate(0 0)">
    <path id="Path_320" data-name="Path 320" d="M867.769,623.444a524.559,524.559,0,0,1-44.611,97.91c-.415.71-.834,1.407-1.257,2.115l-46.257-14.634c.266-.67.557-1.419.871-2.237,18.657-48.25,131.223-342.226,126.17-400.188C903.229,311.154,920.838,468.166,867.769,623.444Z" transform="translate(-290.135 -129.947)" fill="#e6e6e6"/>
    <path id="Path_321" data-name="Path 321" d="M835.557,761.249c-.629.643-1.274,1.28-1.923,1.9l-34.7-10.978c.469-.568,1.015-1.236,1.644-1.992,10.277-12.551,40.832-50.128,70.667-89.667,32.063-42.489,63.3-87.236,67.68-105.623C938.044,559.074,910.663,686.352,835.557,761.249Z" transform="translate(-293.61 -167.019)" fill="#e6e6e6"/>
    <path id="Path_322" data-name="Path 322" d="M810.421,203.75c-.013,0-.025,0-.038,0V129.369A30.365,30.365,0,0,0,780.017,99H547.134a30.365,30.365,0,0,0-30.365,30.365V167.5a2.46,2.46,0,0,0-2.408,2.458v18.888a2.46,2.46,0,0,0,2.408,2.457v19.787h-.123a2.463,2.463,0,0,0-2.463,2.463v36.525a2.463,2.463,0,0,0,2.463,2.463h.123v14.507h-.038a2.463,2.463,0,0,0-2.463,2.463V306.4a2.463,2.463,0,0,0,2.463,2.463h.038V665.37a30.365,30.365,0,0,0,30.365,30.365H780.017a30.365,30.365,0,0,0,30.365-30.365V276.083c.013,0,.025,0,.038,0a4.386,4.386,0,0,0,4.386-4.386V208.137a4.386,4.386,0,0,0-4.386-4.386Z" transform="translate(-251.127 -99.004)" fill="#3f3d56"/>
    <path id="Path_323" data-name="Path 323" d="M795.885,140.595V659.588A23.321,23.321,0,0,1,772.564,682.9H561.853a23.321,23.321,0,0,1-23.321-23.312V140.595a23.321,23.321,0,0,1,23.321-23.321h31.531v4.092a19.211,19.211,0,0,0,19.2,19.2h107.2a19.2,19.2,0,0,0,19.16-19.2v-4.05h33.615a23.321,23.321,0,0,1,23.321,23.278Z" transform="translate(-254.76 -101.73)" fill="#fff"/>
    <path id="Path_324" data-name="Path 324" d="M424.092,441.178a9.14,9.14,0,0,0-12.271,6.771l-75.088,40.828,13.2,14.859,69.732-44.752a9.19,9.19,0,0,0,4.424-17.707Z" transform="translate(-224.654 -149.961)" fill="#ffb8b8"/>
    <path id="Path_325" data-name="Path 325" d="M207.81,679.656l9.356-6.052-18.891-38.97-13.809,8.932Z" transform="translate(-27.521 -94.682)" fill="#ffb8b8"/>
    <path id="Path_326" data-name="Path 326" d="M0,0H35.022V13.531h-22A13.025,13.025,0,0,1,0,.506V0Z" transform="translate(213.312 575.937) rotate(147.104)" fill="#2f2e41"/>
    <path id="Path_327" data-name="Path 327" d="M88.511,681.669H99.654l5.3-42.981H88.511Z" transform="translate(-13.205 -95.287)" fill="#ffb8b8"/>
    <path id="Path_328" data-name="Path 328" d="M0,0H35.022V13.531h-22A13.025,13.025,0,0,1,0,.506V0Z" transform="translate(107.94 596.73) rotate(180)" fill="#2f2e41"/>
    <path id="Path_329" data-name="Path 329" d="M589.6,197.25H566.627a2.127,2.127,0,0,1,0-4.254H589.6a2.127,2.127,0,0,1,0,4.254Z" transform="translate(-258.634 -113.027)" fill="#3f3d56"/>
    <path id="Path_330" data-name="Path 330" d="M589.6,204.25H566.627a2.127,2.127,0,0,1,0-4.254H589.6a2.127,2.127,0,0,1,0,4.254Z" transform="translate(-258.634 -114.071)" fill="#3f3d56"/>
    <path id="Path_331" data-name="Path 331" d="M589.6,211.25H566.627a2.127,2.127,0,0,1,0-4.254H589.6a2.127,2.127,0,0,1,0,4.254Z" transform="translate(-258.634 -115.115)" fill="#3f3d56"/>
    <path id="Path_332" data-name="Path 332" d="M801.15,203.169h-.774l-.3-.247a6.475,6.475,0,0,0,1.514-4.16,6.33,6.33,0,1,0-6.3,6.364,6.576,6.576,0,0,0,4.152-1.514l.289.247v.783l4.884,4.892,1.463-1.463Zm-5.854,0a4.407,4.407,0,1,1,4.39-4.424v.017a4.382,4.382,0,0,1-4.356,4.407H795.3Z" transform="translate(-292.118 -112.948)" fill="#3f3d56"/>
    <path id="Path_333" data-name="Path 333" d="M640.127,286.714H598.859a9.359,9.359,0,0,1,0-18.718h41.269a9.359,9.359,0,1,1,0,18.718Z" transform="translate(-262.364 -124.216)" fill="#e8e1d1"/>
    <path id="Path_334" data-name="Path 334" d="M766.468,312.206H594.6a5.1,5.1,0,1,1,0-10.21H766.468a5.1,5.1,0,1,1,0,10.21Z" transform="translate(-262.364 -129.289)" fill="#e6e6e6"/>
    <path id="Path_335" data-name="Path 335" d="M657.735,336.206H594.6a5.1,5.1,0,1,1,0-10.21h63.13a5.1,5.1,0,0,1,0,10.21Z" transform="translate(-262.364 -132.869)" fill="#e6e6e6"/>
    <path id="Path_336" data-name="Path 336" d="M640.127,552.714H598.859a9.359,9.359,0,0,1,0-18.718h41.269a9.359,9.359,0,1,1,0,18.718Z" transform="translate(-262.364 -163.901)" fill="#e8e1d1"/>
    <path id="Path_337" data-name="Path 337" d="M766.468,578.206H594.6a5.1,5.1,0,1,1,0-10.21H766.468a5.1,5.1,0,1,1,0,10.21Z" transform="translate(-262.364 -168.974)" fill="#e6e6e6"/>
    <path id="Path_338" data-name="Path 338" d="M657.735,602.206H594.6a5.1,5.1,0,1,1,0-10.21h63.13a5.1,5.1,0,0,1,0,10.21Z" transform="translate(-262.364 -172.554)" fill="#e6e6e6"/>
    <path id="Path_339" data-name="Path 339" d="M640.127,675.714H598.859a9.359,9.359,0,1,1,0-18.718h41.269a9.359,9.359,0,1,1,0,18.718Z" transform="translate(-262.364 -182.252)" fill="#e8e1d1"/>
    <path id="Path_340" data-name="Path 340" d="M766.468,701.206H594.6a5.1,5.1,0,1,1,0-10.21H766.468a5.1,5.1,0,1,1,0,10.21Z" transform="translate(-262.364 -187.324)" fill="#e6e6e6"/>
    <path id="Path_341" data-name="Path 341" d="M657.735,725.206H594.6a5.1,5.1,0,0,1,0-10.21h63.13a5.1,5.1,0,0,1,0,10.21Z" transform="translate(-262.364 -190.905)" fill="#e6e6e6"/>
    <path id="Path_342" data-name="Path 342" d="M767.144,475.295H438.732a7.24,7.24,0,0,1-7.232-7.232V378.728a7.24,7.24,0,0,1,7.232-7.232H767.144a7.24,7.24,0,0,1,7.232,7.232v89.335A7.24,7.24,0,0,1,767.144,475.295Z" transform="translate(-238.792 -139.657)" fill="#e8e1d1"/>
    <path id="Path_343" data-name="Path 343" d="M299.166,614.992c3.139,22.027-13.485,119.615-11.639,119.607l23.874-.128c.851-1.634,11.809-54.29,15.247-62.739,4.8-11.724,9.64-23.593,11.528-36.117,1.778-11.758.9-23.738-.255-35.572a2.246,2.246,0,0,0-2.6-2.552l-32.033-1.651c-6.6-.34-8.168-1.787-7.164,4.7C296.818,605.378,298.468,610.091,299.166,614.992Z" transform="translate(-217.291 -173.071)" fill="#2f2e41"/>
    <path id="Path_344" data-name="Path 344" d="M306.6,555.049c-6.509,9.359-13.332,20.13-11.171,31.335,1.642,8.508,8.125,15.1,14.243,21.27,24.452,24.554,72.668,132.9,72.668,132.9,23.268-14.889-.554.425,23.057-15.315-2.093-.162-49.645-171.1-53.584-171.327C335.878,552.854,322.129,551.3,306.6,555.049Z" transform="translate(-218.431 -166.687)" fill="#2f2e41"/>
    <path id="Path_345" data-name="Path 345" d="M333.249,448.65c-3.306-2.948-26.539-12.04-26.539-12.04a3.986,3.986,0,0,0-1.284.039c-1.322.334-1.925,1.977-1.643,3.305s-2.035,23.163-2.631,33.092c-1.046,17.329,9.159,56.582,9.069,57.782a17.932,17.932,0,0,1-5.282,11.309c.795.987,51.274,2.965,54.708,4.133.693-.879-3.909-63.141-4.12-66.658C355.173,474.271,337.613,452.693,333.249,448.65Z" transform="translate(-219.334 -149.367)" fill="#e6e6e6"/>
    <path id="Path_346" data-name="Path 346" d="M294.234,586.45a9.14,9.14,0,0,0,3.268-13.629l21.3-117.871-19.875-.262-14.79,116.559a9.19,9.19,0,0,0,10.1,15.2Z" transform="translate(-216.323 -152.069)" fill="#ffb8b8"/>
    <path id="Path_347" data-name="Path 347" d="M295.943,462.138a3.769,3.769,0,0,1-2.348-.613c-1.183-1.012,8.466-16.506,10.371-16.735,6.2-.715,12.583-.953,18.6.723s11.673,5.488,14.362,11.129c1.123,2.348-7.019,14.166-10.72,12.43C321.773,467,301.779,462.283,295.943,462.138Z" transform="translate(-218.203 -150.511)" fill="#e6e6e6"/>
    <circle id="Ellipse_179" data-name="Ellipse 179" cx="22.324" cy="22.324" r="22.324" transform="translate(77.307 241.324)" fill="#ffb8b8"/>
    <path id="Path_348" data-name="Path 348" d="M291.484,438.816a18.654,18.654,0,0,0,19.641-24.439c-.888-2.671-2.373-5.119-3.187-7.814s-.836-5.881.969-8.041c3.531-4.227,10.336-1.568,15.778-2.408,5.8-.9,10.249-6.46,10.713-12.31s-2.585-11.639-7.124-15.359-10.393-5.551-16.234-6.125A43.9,43.9,0,0,0,266.987,422.3c2.44,6.105,6.426,11.791,12.086,15.135s13.138,3.986,18.78.611" transform="translate(-213.78 -138.257)" fill="#2f2e41"/>
    <path id="Path_349" data-name="Path 349" d="M566.121,416.214h-57.05c-3.623,0-6.571-4.2-6.571-9.359s2.948-9.359,6.571-9.359h57.05c3.623,0,6.571,4.2,6.571,9.359S569.744,416.214,566.121,416.214Z" transform="translate(-249.384 -143.536)" fill="#fff"/>
    <path id="Path_350" data-name="Path 350" d="M719.456,441.706H507.6a5.1,5.1,0,1,1,0-10.21H719.456a5.1,5.1,0,1,1,0,10.21Z" transform="translate(-249.384 -148.609)" fill="#e6e6e6"/>
    <path id="Path_351" data-name="Path 351" d="M610.723,465.706H507.6a5.1,5.1,0,0,1,0-10.21H610.723a5.1,5.1,0,0,1,0,10.21Z" transform="translate(-249.384 -152.189)" fill="#e6e6e6"/>
    <rect id="Rectangle_25" data-name="Rectangle 25" width="672" height="1" transform="translate(0 596.528)" fill="#3f3d56"/>
  </g>
</svg>
