<svg xmlns="http://www.w3.org/2000/svg" width="23" height="20.252" viewBox="0 0 23 20.252">
  <g id="Speech_Bubble_48_" transform="translate(0 -30.536)">
    <g id="Group_17" data-name="Group 17" transform="translate(0 30.536)">
      <path id="Path_34" data-name="Path 34" d="M3.348,50.788H1.718L2.87,49.635a3.9,3.9,0,0,0,1.114-2.306A8.783,8.783,0,0,1,.542,43.259a7.97,7.97,0,0,1-.23-5.107A10,10,0,0,1,4.143,32.8a12.518,12.518,0,0,1,7.4-2.268,12.4,12.4,0,0,1,8.548,2.914,8.746,8.746,0,0,1,2.181,10.019,9,9,0,0,1-2.187,3.043,12.369,12.369,0,0,1-8.543,2.925,15.544,15.544,0,0,1-3.866-.492,6.039,6.039,0,0,1-4.324,1.842Zm8.191-18.9c-5.582,0-9.007,3.329-9.926,6.628-.868,3.118.411,6.064,3.422,7.881l.336.2-.01.393a5.316,5.316,0,0,1-.538,2.2,4.782,4.782,0,0,0,2.115-1.447l.285-.337.423.127a13.964,13.964,0,0,0,3.892.551c6.947,0,10.111-4.207,10.111-8.115a7.425,7.425,0,0,0-2.474-5.526,11.084,11.084,0,0,0-7.637-2.56Z" transform="translate(0 -30.536)" fill="#333"/>
    </g>
  </g>
</svg>
