<svg xmlns="http://www.w3.org/2000/svg" width="743.67" height="625.391" viewBox="0 0 743.67 625.391">
  <g id="Coffee_Break" transform="translate(0)">
    <path id="Path_3" data-name="Path 3" d="M634.152,123a211.824,211.824,0,0,0-159.817,71.579A211.822,211.822,0,0,0,314.517,123c-119.275.548-214.334,98.74-211.975,218.83C104.83,458.3,199.3,552.011,315.511,552.011q6.763,0,13.423-.419a2325.094,2325.094,0,0,1,290.8,0q6.658.417,13.423.419c116.207,0,210.68-93.708,212.968-210.179C848.486,221.743,753.426,123.55,634.152,123Z" transform="translate(-102.499 -54.706)" fill="#f2f2f2"/>
    <path id="Path_4" data-name="Path 4" d="M754.442,39.083a17.177,17.177,0,0,0-14.806,10.352c-3.7,8.949,1.065,19.462,8.221,25.988s16.349,10.256,24.7,15.159c11.218,6.586,21.3,15.728,26.912,27.463s6.21,26.271-.388,37.482c-6.124,10.406-17.26,16.633-27.88,22.377" transform="translate(-263.111 -33.509)" fill="none" stroke="#3f3d56" stroke-miterlimit="10" stroke-width="1"/>
    <ellipse id="Ellipse_11" data-name="Ellipse 11" cx="13.08" cy="6.353" rx="13.08" ry="6.353" transform="translate(487.683)" fill="#57b894"/>
    <ellipse id="Ellipse_12" data-name="Ellipse 12" cx="13.08" cy="6.353" rx="13.08" ry="6.353" transform="translate(498.147 41.855)" fill="#57b894"/>
    <ellipse id="Ellipse_13" data-name="Ellipse 13" cx="13.08" cy="6.353" rx="13.08" ry="6.353" transform="translate(474.23 48.581)" fill="#57b894"/>
    <ellipse id="Ellipse_14" data-name="Ellipse 14" cx="13.08" cy="6.353" rx="13.08" ry="6.353" transform="translate(511.6 83.709)" fill="#57b894"/>
    <ellipse id="Ellipse_15" data-name="Ellipse 15" cx="13.08" cy="6.353" rx="13.08" ry="6.353" transform="translate(537.76 83.709)" fill="#57b894"/>
    <path id="Path_5" data-name="Path 5" d="M836.586,317.405a17.177,17.177,0,0,0-17.864,2.694c-7.294,6.372-7.695,17.907-4.184,26.934s10.088,16.453,15.391,24.557c7.123,10.885,12.091,23.554,11.9,36.561s-6.112,26.294-17,33.406c-10.11,6.6-22.854,7.231-34.92,7.656" transform="translate(-276.134 -103.462)" fill="none" stroke="#3f3d56" stroke-miterlimit="10" stroke-width="1"/>
    <ellipse id="Ellipse_16" data-name="Ellipse 16" cx="6.353" cy="13.08" rx="6.353" ry="13.08" transform="matrix(0.444, -0.896, 0.896, 0.444, 554.011, 218.711)" fill="#57b894"/>
    <ellipse id="Ellipse_17" data-name="Ellipse 17" cx="6.353" cy="13.08" rx="6.353" ry="13.08" transform="matrix(0.444, -0.896, 0.896, 0.444, 544.784, 260.855)" fill="#57b894"/>
    <ellipse id="Ellipse_18" data-name="Ellipse 18" cx="6.353" cy="13.08" rx="6.353" ry="13.08" transform="matrix(0.444, -0.896, 0.896, 0.444, 520.369, 256.253)" fill="#57b894"/>
    <ellipse id="Ellipse_19" data-name="Ellipse 19" cx="6.353" cy="13.08" rx="6.353" ry="13.08" transform="matrix(0.444, -0.896, 0.896, 0.444, 538.236, 304.329)" fill="#57b894"/>
    <ellipse id="Ellipse_20" data-name="Ellipse 20" cx="6.353" cy="13.08" rx="6.353" ry="13.08" transform="matrix(0.444, -0.896, 0.896, 0.444, 561.67, 315.953)" fill="#57b894"/>
    <path id="Path_6" data-name="Path 6" d="M400.5,396.347a17.177,17.177,0,0,1,17.6-4.094c9.131,3.228,13.765,13.8,13.836,23.484s-3.3,19.015-5.233,28.5c-2.6,12.746-2.536,26.354,2.441,38.373s15.391,22.178,28.14,24.763c11.833,2.4,23.908-1.721,35.279-5.782" transform="translate(-177.773 -122.49)" fill="none" stroke="#3f3d56" stroke-miterlimit="10" stroke-width="1"/>
    <ellipse id="Ellipse_21" data-name="Ellipse 21" cx="13.08" cy="6.353" rx="13.08" ry="6.353" transform="translate(203.539 286.877) rotate(-48.059)" fill="#57b894"/>
    <ellipse id="Ellipse_22" data-name="Ellipse 22" cx="13.08" cy="6.353" rx="13.08" ry="6.353" transform="translate(227.679 322.634) rotate(-48.059)" fill="#57b894"/>
    <ellipse id="Ellipse_23" data-name="Ellipse 23" cx="13.08" cy="6.353" rx="13.08" ry="6.353" transform="translate(248.668 309.34) rotate(-48.059)" fill="#57b894"/>
    <ellipse id="Ellipse_24" data-name="Ellipse 24" cx="13.08" cy="6.353" rx="13.08" ry="6.353" transform="translate(249.82 360.616) rotate(-48.059)" fill="#57b894"/>
    <ellipse id="Ellipse_25" data-name="Ellipse 25" cx="13.08" cy="6.353" rx="13.08" ry="6.353" transform="translate(232.337 380.074) rotate(-48.059)" fill="#57b894"/>
    <path id="Path_7" data-name="Path 7" d="M720.113,277.923,718.057,293,705.351,386.02,684.544,538.357l-5.209,38.14a12.149,12.149,0,0,1-12.041,10.509H528.537A12.153,12.153,0,0,1,516.5,576.527l-5.3-38.17L490.039,386.02l-12.93-93.089-2.078-14.978a12.149,12.149,0,0,1,12.033-13.827H708.072a12.157,12.157,0,0,1,12.041,13.8Z" transform="translate(-196.569 -90.354)" fill="#e8e1d1"/>
    <rect id="Rectangle_17" data-name="Rectangle 17" width="216.748" height="40.36" rx="16.26" transform="translate(292.984 133.412)" fill="#2f2e41"/>
    <path id="Path_8" data-name="Path 8" d="M711.248,235.646v9.133A12.153,12.153,0,0,1,699.1,256.932H506.653A12.153,12.153,0,0,1,494.5,244.779v-9.111a1141.29,1141.29,0,0,0,216.748-.022Z" transform="translate(-201.516 -83.16)" opacity="0.1"/>
    <circle id="Ellipse_26" data-name="Ellipse 26" cx="32.886" cy="32.886" r="32.886" transform="translate(310.548 223.474)" fill="#2f2e41"/>
    <circle id="Ellipse_27" data-name="Ellipse 27" cx="32.886" cy="32.886" r="32.886" transform="translate(427.143 223.474)" fill="#2f2e41"/>
    <circle id="Ellipse_28" data-name="Ellipse 28" cx="8.969" cy="8.969" r="8.969" transform="translate(332.97 247.391)" fill="#fff"/>
    <circle id="Ellipse_29" data-name="Ellipse 29" cx="3.737" cy="3.737" r="3.737" transform="translate(351.655 235.433)" fill="#fff"/>
    <circle id="Ellipse_30" data-name="Ellipse 30" cx="8.969" cy="8.969" r="8.969" transform="translate(451.06 247.391)" fill="#fff"/>
    <circle id="Ellipse_31" data-name="Ellipse 31" cx="3.737" cy="3.737" r="3.737" transform="translate(469.746 235.433)" fill="#fff"/>
    <path id="Path_9" data-name="Path 9" d="M719.423,271.974h0l-.011-.027a12.151,12.151,0,0,0-1.227-2.381v0c-.147-.22-.3-.433-.462-.643-.053-.07-.109-.139-.163-.208a12.244,12.244,0,0,0-1.549-1.615c-.126-.11-.253-.218-.384-.322-.147-.117-.294-.232-.446-.342-.19-.138-.386-.268-.585-.4-.156-.1-.313-.2-.475-.291q-.374-.216-.764-.407c-.124-.06-.25-.116-.376-.172q-.373-.165-.759-.305c-.1-.038-.205-.079-.31-.114q-.534-.178-1.09-.307c-.091-.021-.184-.036-.275-.055q-.455-.094-.922-.154c-.113-.014-.225-.029-.339-.04-.4-.04-.8-.067-1.213-.067H487.066a12.186,12.186,0,0,0-12.034,13.824l.351,2.527,1.728,12.454h0l12.929,93.089h0l16.972,122.193,9.488,68.311a12.152,12.152,0,0,0,12.037,10.48h6.585a12.134,12.134,0,0,1-.684-2.633l-6.391-46.016h156.5L705.353,386.02H506.889l-12.722-91.6A1284.335,1284.335,0,0,0,718.059,293l2.055-15.075A12.061,12.061,0,0,0,719.423,271.974Z" transform="translate(-196.571 -90.354)" opacity="0.1"/>
    <path id="Path_10" data-name="Path 10" d="M727.795,277.486a1286.284,1286.284,0,0,1-279.143,0A12.152,12.152,0,0,1,436.5,265.334V249.278a12.152,12.152,0,0,1,12.152-12.152,1143.718,1143.718,0,0,0,279.143,0,12.152,12.152,0,0,1,12.152,12.152v16.056A12.152,12.152,0,0,1,727.795,277.486Z" transform="translate(-186.866 -83.534)" fill="#2f2e41"/>
    <path id="Path_11" data-name="Path 11" d="M690.686,575.886H503.846a7.046,7.046,0,0,1-6.959-5.942L476.7,442.776a7.046,7.046,0,0,1,6.959-8.151H712.217a7.046,7.046,0,0,1,6.948,8.223L697.634,570.016A7.046,7.046,0,0,1,690.686,575.886Z" transform="translate(-196.998 -133.421)" fill="#2f2e41"/>
    <path id="Path_12" data-name="Path 12" d="M684.918,500.144a4.979,4.979,0,0,1,2.73,8.311c-11.855,12.636-40.6,38.984-74.174,38.984s-62.319-26.348-74.174-38.984a4.979,4.979,0,0,1,2.73-8.311,394.8,394.8,0,0,1,142.888,0Z" transform="translate(-212.491 -148.324)" fill="#e8e1d1"/>
    <path id="Path_13" data-name="Path 13" d="M662.322,511.848a4.98,4.98,0,0,1,2.707,8.469c-8.028,7.827-22.969,19.63-40.075,19.63s-32.048-11.8-40.076-19.63a4.98,4.98,0,0,1,2.706-8.469,228.077,228.077,0,0,1,74.738,0Z" transform="translate(-223.969 -152.148)" fill="#fff"/>
    <line id="Line_5" data-name="Line 5" x2="516.458" transform="translate(94.548 497.025)" fill="none" stroke="#3f3d56" stroke-miterlimit="10" stroke-width="1"/>
    <path id="Path_14" data-name="Path 14" d="M286.152,604.07V625.1l10.8,12.5s4.546-1.7,4.546-13.069l1.7-16.479Z" transform="translate(-148.889 -176.222)" fill="#a0616a"/>
    <path id="Path_15" data-name="Path 15" d="M287.009,621.929S269.393,610,268.825,606.019s-25.571-22.162-21.593-10.8S263.711,611.7,263.711,611.7s9.66,26.139,18.184,25.571S290.419,625.907,287.009,621.929Z" transform="translate(-138.95 -173.056)" fill="#a0616a"/>
    <path id="Path_16" data-name="Path 16" d="M209.286,771.64l1.7,10.228L201.9,779.6V771.64Z" transform="translate(-50.998 -194.911)" fill="#3f3d56"/>
    <path id="Path_17" data-name="Path 17" d="M304.888,809.472s-10.508-6.226-10.937-3.4-4.974,13.625-7.247,14.762-5.114,13.638,0,13.07c3.961-.44,18.489-8.039,24.839-11.443a3.47,3.47,0,0,0,1.492-4.535,7.158,7.158,0,0,1-.76-2.206C312.275,814.586,304.888,809.472,304.888,809.472Z" transform="translate(-148.304 -227.061)" fill="#2f2e41"/>
    <path id="Path_18" data-name="Path 18" d="M306.078,653.457s-41.482,19.32-37.5,34.095,18.752,77.281,18.752,77.281,16.479,3.978,17.616,0-10.8-65.916-9.66-68.189S317.443,679.6,317.443,679.6l43.187-18.184-18.184-17.047Z" transform="translate(-144.381 -186.4)" fill="#2f2e41"/>
    <path id="Path_19" data-name="Path 19" d="M172.8,776.2l-5.115,13.07,9.092,3.978,5.683-10.229Z" transform="translate(-42.356 -196.064)" fill="#3f3d56"/>
    <path id="Path_20" data-name="Path 20" d="M317.752,526.159s5.114,6.819,1.136,10.228-1.136,15.911-1.136,15.911l5.114,14.206,20.457-3.978v-23.3l-1.137-11.365s-10.228-9.66-11.365-17.047S317.752,526.159,317.752,526.159Z" transform="translate(-156.622 -152.293)" fill="#a0616a"/>
    <path id="Path_21" data-name="Path 21" d="M317.752,526.159s5.114,6.819,1.136,10.228-1.136,15.911-1.136,15.911l5.114,14.206,20.457-3.978v-23.3l-1.137-11.365s-10.228-9.66-11.365-17.047S317.752,526.159,317.752,526.159Z" transform="translate(-156.622 -152.293)" opacity="0.1"/>
    <path id="Path_22" data-name="Path 22" d="M340.464,650.448S313.756,680,313.756,681.133s-14.206,24.434-14.206,24.434l-27.844,61.939s10.8,14.774,15.343,13.638,36.936-67.053,36.936-67.053,5.682-14.774,21.025-18.184,27.276-15.343,21.593-28.98S340.464,650.448,340.464,650.448Z" transform="translate(-145.24 -187.936)" fill="#2f2e41"/>
    <circle id="Ellipse_32" data-name="Ellipse 32" cx="18.184" cy="18.184" r="18.184" transform="translate(142.946 341.476)" fill="#a0616a"/>
    <path id="Path_23" data-name="Path 23" d="M317.692,551.219s2.273,13.07,4.546,14.206,3.978,5.114,9.092-.568,9.66-17.047,9.66-17.047L358.605,569.4l1.7,59.666s-19.889-5.114-26.139,0-19.889,4.546-19.889,4.546l2.841-11.365-2.273-19.32.568-17.616.568-12.5Z" transform="translate(-155.994 -162.01)" fill="#f2f2f2"/>
    <path id="Path_24" data-name="Path 24" d="M313.741,539.573s-7.684,3.882-8.253,6.155-10.8,6.819-10.8,6.819-3.978,3.978-3.978,6.251,13.638,28.413,13.638,28.413,2.841,17.616,1.7,21.025,2.273,16.479,2.273,16.479l-6.819,7.955h6.251s6.819-3.409,6.819-5.114-1.136-13.638-1.7-18.752-.568-23.3.568-29.549.568-22.73.568-26.708S313.741,539.573,313.741,539.573Z" transform="translate(-150.041 -159.93)" fill="#3f3d56"/>
    <path id="Path_25" data-name="Path 25" d="M341.911,528.029s2.557.578,9.944,2.851,18.752,5.682,22.73,10.228a70.439,70.439,0,0,1,7.387,10.8L379.7,592.818s4.546,8.524,3.978,13.069-5.114,5.114-1.7,14.774,10.228,18.184,3.978,19.32-22.73-2.841-30.117-.568-15.911-8.524-15.911-8.524,11.365,1.136,9.66-3.41-20.457-55.688-16.479-67.053S341.911,528.029,341.911,528.029Z" transform="translate(-160.609 -157.014)" fill="#3f3d56"/>
    <path id="Path_26" data-name="Path 26" d="M291.5,561.494l-2.841,2.273s-7.955,28.412-5.682,31.253,20.457,9.092,21.593,5.114S291.5,561.494,291.5,561.494Z" transform="translate(-147.983 -165.467)" fill="#3f3d56"/>
    <path id="Path_27" data-name="Path 27" d="M401.469,588.1s8.524,24.435,8.524,31.253-1.137,46.6-1.137,46.6-.568,17.047-12.5,10.228,0-11.365,0-11.365-.568-44.891-5.114-51.142-6.251-15.343-6.251-15.343Z" transform="translate(-173.855 -172.189)" fill="#a0616a"/>
    <path id="Path_28" data-name="Path 28" d="M275.6,823.741s-8.524-4.546-10.228-1.136-10.8,22.161-9.66,24.434,7.387,11.365,14.774,9.092,7.955-14.206,7.955-14.206L279,828.287Z" transform="translate(-141.174 -231.102)" fill="#2f2e41"/>
    <path id="Path_29" data-name="Path 29" d="M304.129,499.148c1.253.59,2.738.942,3.526,2.081a17.532,17.532,0,0,1,1.067,2.874,4.064,4.064,0,0,0,5.228,1.912,4.508,4.508,0,0,1,1.839-2.792,2.678,2.678,0,0,1,3.179.174c1.171,1.117.757,3.064,1.3,4.587a9.682,9.682,0,0,0,2.082,2.856c1.244,1.435,2.235,3.118,3.732,4.285s3.769,1.673,5.257.493a4.49,4.49,0,0,0,1.207-4.39c-.3-1.568-1.057-3.011-1.482-4.55-1.381-5,.821-10.341.139-15.485-.873-6.591-6.475-11.8-12.728-14.057a14.891,14.891,0,0,0-8.217-.871c-2.86.639-5.3,2.459-8.041,3.5-2.929,1.114-6.113,1.308-9.178,1.959s-6.219,1.909-8,4.489c-1.24,1.8-1.667,4.034-2.695,5.962a10.7,10.7,0,0,1-5.418,4.854l3.24-.185a9.549,9.549,0,0,1-2.581,3.768,6.928,6.928,0,0,0,4.485-.593,4.875,4.875,0,0,1-1.672,3.5c2.493-.075,5.122-.19,7.229-1.525,1.032-.654,1.873-1.565,2.844-2.307a21.046,21.046,0,0,1,7.141-3.049c1.314-.377,2.9-.9,4.085-.056C302.692,497.282,302.848,498.546,304.129,499.148Z" transform="translate(-146.56 -143.881)" fill="#2f2e41"/>
    <path id="Path_30" data-name="Path 30" d="M383.621,550.85l8.524,6.819,11.365,26.139s-15.911,12.5-19.889,10.8-10.8-31.822-10.8-31.822Z" transform="translate(-170.782 -162.778)" fill="#3f3d56"/>
    <path id="Path_31" data-name="Path 31" d="M268.168,585.849l-.142,1.045-.88,6.445L265.7,603.894l-.361,2.643a.842.842,0,0,1-.834.728h-9.614a.842.842,0,0,1-.834-.726l-.367-2.645-1.466-10.555-.9-6.45-.144-1.038a.842.842,0,0,1,.834-.958h15.313a.842.842,0,0,1,.834.956Z" transform="translate(-140.055 -171.378)" fill="#e8e1d1"/>
    <rect id="Rectangle_18" data-name="Rectangle 18" width="15.018" height="2.796" rx="1.127" transform="translate(112.139 410.719)" fill="#2f2e41"/>
    <path id="Path_32" data-name="Path 32" d="M268.7,585.818a89.118,89.118,0,0,1-19.341,0,.842.842,0,0,1-.842-.842v-1.112a.842.842,0,0,1,.842-.842,79.248,79.248,0,0,0,19.341,0,.842.842,0,0,1,.842.842v1.112a.842.842,0,0,1-.842.842Z" transform="translate(-139.383 -170.905)" fill="#2f2e41"/>
    <path id="Path_33" data-name="Path 33" d="M266.129,606.493H253.183a.488.488,0,0,1-.482-.412l-1.4-8.811a.488.488,0,0,1,.482-.565h15.836a.488.488,0,0,1,.481.57l-1.492,8.811A.488.488,0,0,1,266.129,606.493Z" transform="translate(-140.084 -174.361)" fill="#2f2e41"/>
  </g>
</svg>
