<svg xmlns="http://www.w3.org/2000/svg" width="23" height="20.921" viewBox="0 0 23 20.921">
  <g id="iconfinder_heart_1814104" transform="translate(-8.1 -11.1)">
    <g id="Icon-Heart" transform="translate(8.1 11.1)">
      <path id="Fill-18" d="M-158.4-197.979l-.385-.35c-8.757-7.407-11.115-10.01-11.115-14.264a6.193,6.193,0,0,1,6.063-6.306A6.88,6.88,0,0,1-158.4-216a6.88,6.88,0,0,1,5.437-2.9,6.194,6.194,0,0,1,6.063,6.306c0,4.254-2.358,6.857-11.115,14.264l-.385.35Zm-5.437-19.62a4.926,4.926,0,0,0-4.812,5.005c0,3.654,2.213,6.056,10.249,12.913,8.036-6.857,10.249-9.259,10.249-12.913a4.926,4.926,0,0,0-4.812-5.005c-2.406,0-3.705,1.5-4.715,2.7l-.722.851-.722-.851c-1.01-1.2-2.31-2.7-4.715-2.7Z" transform="translate(169.9 218.9)" fill="#333"/>
    </g>
  </g>
</svg>
